<svg xmlns="http://www.w3.org/2000/svg" xmlns:xlink="http://www.w3.org/1999/xlink" width="500" zoomAndPan="magnify" viewBox="0 0 375 374.999991" height="500" preserveAspectRatio="xMidYMid meet" version="1.0"><defs><g/><clipPath id="6e396c7a6e"><path d="M 14.863281 14.863281 L 359.597656 14.863281 L 359.597656 359.597656 L 14.863281 359.597656 Z M 14.863281 14.863281 " clip-rule="nonzero"/></clipPath><clipPath id="061602e009"><path d="M 187.230469 359.597656 C 141.210938 359.597656 97.878906 341.683594 65.363281 309.101562 C 32.777344 276.582031 14.863281 233.25 14.863281 187.230469 C 14.863281 141.210938 32.777344 97.878906 65.363281 65.363281 C 97.878906 32.777344 141.210938 14.863281 187.230469 14.863281 C 233.25 14.863281 276.582031 32.777344 309.101562 65.363281 C 341.683594 97.949219 359.597656 141.210938 359.597656 187.230469 C 359.597656 233.25 341.683594 276.582031 309.101562 309.101562 C 276.582031 341.683594 233.25 359.597656 187.230469 359.597656 Z M 187.230469 25.199219 C 143.96875 25.199219 103.253906 42.078125 72.664062 72.664062 C 42.078125 103.253906 25.199219 143.96875 25.199219 187.230469 C 25.199219 230.496094 42.078125 271.210938 72.664062 301.796875 C 103.253906 332.386719 143.96875 349.261719 187.230469 349.261719 C 230.496094 349.261719 271.210938 332.386719 301.796875 301.796875 C 332.386719 271.210938 349.261719 230.496094 349.261719 187.230469 C 349.261719 143.96875 332.386719 103.253906 301.796875 72.664062 C 271.210938 42.078125 230.496094 25.199219 187.230469 25.199219 Z M 187.230469 25.199219 " clip-rule="nonzero"/></clipPath><clipPath id="a22ffc6019"><path d="M 82.160156 92 L 269 92 L 269 279 L 82.160156 279 Z M 82.160156 92 " clip-rule="nonzero"/></clipPath><clipPath id="a3c0502f10"><path d="M 228.742188 243.027344 L 269.25 243.027344 L 269.25 285.136719 L 228.742188 285.136719 Z M 228.742188 243.027344 " clip-rule="nonzero"/></clipPath><clipPath id="c94c5e2207"><path d="M 82.265625 131.425781 L 292.183594 131.425781 L 292.183594 253.757812 L 82.265625 253.757812 Z M 82.265625 131.425781 " clip-rule="nonzero"/></clipPath></defs><g clip-path="url(#6e396c7a6e)"><g clip-path="url(#061602e009)"><path fill="#001d40" d="M 14.863281 14.863281 L 359.597656 14.863281 L 359.597656 359.597656 L 14.863281 359.597656 Z M 14.863281 14.863281 " fill-opacity="1" fill-rule="nonzero"/></g></g><g fill="#001d40" fill-opacity="1"><g transform="translate(74.611494, 274.805388)"><g><path d="M 21.203125 -6.359375 C 22.910156 -4.410156 23.9375 -2.203125 24.28125 0.265625 L 21.125 1.15625 C 20.71875 -1.175781 19.894531 -3.050781 18.65625 -4.46875 C 18 -5.21875 17.34375 -5.691406 16.6875 -5.890625 C 16.03125 -6.085938 15.453125 -5.96875 14.953125 -5.53125 C 14.453125 -5.09375 14.195312 -4.519531 14.1875 -3.8125 C 14.1875 -3.113281 14.367188 -2.390625 14.734375 -1.640625 C 15.097656 -0.890625 15.460938 -0.0546875 15.828125 0.859375 C 16.191406 1.785156 16.5 2.671875 16.75 3.515625 C 17 4.367188 17 5.253906 16.75 6.171875 C 16.5 7.085938 15.953125 7.914062 15.109375 8.65625 C 13.796875 9.8125 12.28125 10.207031 10.5625 9.84375 C 8.851562 9.476562 7.265625 8.457031 5.796875 6.78125 C 4.785156 5.632812 4.023438 4.335938 3.515625 2.890625 C 3.003906 1.441406 2.765625 -0.00390625 2.796875 -1.453125 L 5.9375 -2.28125 C 5.90625 -0.90625 6.097656 0.398438 6.515625 1.640625 C 6.929688 2.878906 7.492188 3.910156 8.203125 4.734375 C 8.984375 5.617188 9.75 6.164062 10.5 6.375 C 11.257812 6.59375 11.925781 6.453125 12.5 5.953125 C 13.019531 5.492188 13.28125 4.910156 13.28125 4.203125 C 13.28125 3.492188 13.097656 2.765625 12.734375 2.015625 C 12.378906 1.273438 12.007812 0.453125 11.625 -0.453125 C 11.25 -1.359375 10.925781 -2.226562 10.65625 -3.0625 C 10.394531 -3.90625 10.382812 -4.78125 10.625 -5.6875 C 10.863281 -6.601562 11.398438 -7.425781 12.234375 -8.15625 C 13.503906 -9.269531 14.957031 -9.660156 16.59375 -9.328125 C 18.226562 -8.992188 19.765625 -8.003906 21.203125 -6.359375 Z M 21.203125 -6.359375 "/></g></g></g><g fill="#001d40" fill-opacity="1"><g transform="translate(91.141469, 292.756463)"><g><path d="M 23.359375 -2.84375 L 18.4375 -6.859375 L 7.703125 6.28125 L 5.09375 4.15625 L 15.828125 -8.984375 L 10.921875 -12.984375 L 12.828125 -15.34375 L 25.265625 -5.203125 Z M 23.359375 -2.84375 "/></g></g></g><g fill="#001d40" fill-opacity="1"><g transform="translate(109.450597, 307.166317)"><g><path d="M 13.390625 7.4375 L 13.125 0.359375 C 12.945312 0.285156 12.675781 0.148438 12.3125 -0.046875 L 8.171875 -2.359375 L 5.25 2.90625 L 2.296875 1.28125 L 12.015625 -16.203125 L 19.109375 -12.265625 C 21.347656 -11.023438 22.789062 -9.546875 23.4375 -7.828125 C 24.09375 -6.109375 23.890625 -4.296875 22.828125 -2.390625 C 22.054688 -0.992188 21.085938 0.015625 19.921875 0.640625 C 18.765625 1.265625 17.476562 1.472656 16.0625 1.265625 L 16.734375 9.296875 Z M 9.65625 -5.015625 L 13.796875 -2.703125 C 16.628906 -1.128906 18.695312 -1.519531 20 -3.875 C 21.25 -6.125 20.457031 -8.035156 17.625 -9.609375 L 13.484375 -11.921875 Z M 9.65625 -5.015625 "/></g></g></g><g fill="#001d40" fill-opacity="1"><g transform="translate(133.81605, 319.870752)"><g><path d="M 21.421875 -10.75 L 11.046875 -14.203125 L 9.34375 -9.09375 L 18.625 -6 L 17.671875 -3.125 L 8.390625 -6.21875 L 6.640625 -0.984375 L 17.328125 2.578125 L 16.375 5.453125 L 2.484375 0.828125 L 8.796875 -18.15625 L 22.375 -13.640625 Z M 21.421875 -10.75 "/></g></g></g><g fill="#001d40" fill-opacity="1"><g transform="translate(158.192706, 327.346361)"><g><path d="M 19.15625 -14.390625 L 8.34375 -15.9375 L 7.578125 -10.59375 L 17.265625 -9.203125 L 16.84375 -6.203125 L 7.15625 -7.59375 L 6.375 -2.140625 L 17.53125 -0.546875 L 17.09375 2.453125 L 2.59375 0.375 L 5.4375 -19.421875 L 19.59375 -17.390625 Z M 19.15625 -14.390625 "/></g></g></g><g fill="#001d40" fill-opacity="1"><g transform="translate(183.4275, 330.302053)"><g><path d="M 15.828125 -17.421875 L 9.46875 -17.25 L 9.9375 -0.28125 L 6.578125 -0.1875 L 6.109375 -17.15625 L -0.21875 -16.96875 L -0.296875 -19.984375 L 15.75 -20.4375 Z M 15.828125 -17.421875 "/></g></g></g><g fill="#001d40" fill-opacity="1"><g transform="translate(207.111929, 329.581775)"><g><path d="M 22.546875 -5.484375 L 19.1875 -4.671875 L 10.890625 -18.71875 L 9.90625 -2.421875 L 6.53125 -1.59375 L -4.65625 -19.453125 L -1.125 -20.3125 L 7.4375 -5.671875 L 8.3125 -22.578125 L 11.515625 -23.390625 L 20.078125 -8.75 L 20.921875 -25.6875 L 24.3125 -26.515625 Z M 22.546875 -5.484375 "/></g></g></g><g fill="#001d40" fill-opacity="1"><g transform="translate(242.448656, 319.556356)"><g><path d="M 7.671875 -22.703125 L -2.125 -17.875 L 0.25 -13.046875 L 9.03125 -17.375 L 10.375 -14.65625 L 1.59375 -10.328125 L 4.03125 -5.375 L 14.140625 -10.359375 L 15.484375 -7.640625 L 2.359375 -1.15625 L -6.484375 -19.09375 L 6.328125 -25.421875 Z M 7.671875 -22.703125 "/></g></g></g><g fill="#001d40" fill-opacity="1"><g transform="translate(265.162288, 307.758042)"><g><path d="M 9.703125 -12.96875 L 1.640625 -6.890625 L 2.828125 -2.140625 L 0.03125 -0.015625 L -4.953125 -21.296875 L -2.203125 -23.375 L 16.828125 -12.671875 L 13.953125 -10.515625 Z M 6.875 -14.578125 L -1.5 -19.421875 L 0.84375 -10.046875 Z M 6.875 -14.578125 "/></g></g></g><g fill="#001d40" fill-opacity="1"><g transform="translate(287.101309, 290.353539)"><g><path d="M 10.21875 -11.40625 L 3.265625 -12.734375 C 3.148438 -12.578125 2.953125 -12.34375 2.671875 -12.03125 L -0.5 -8.5 L 4 -4.46875 L 1.75 -1.953125 L -13.140625 -15.296875 L -7.71875 -21.34375 C -6.007812 -23.25 -4.242188 -24.328125 -2.421875 -24.578125 C -0.609375 -24.835938 1.109375 -24.238281 2.734375 -22.78125 C 3.921875 -21.71875 4.6875 -20.550781 5.03125 -19.28125 C 5.382812 -18.007812 5.304688 -16.710938 4.796875 -15.390625 L 12.765625 -14.25 Z M -2.75 -10.515625 L 0.421875 -14.046875 C 2.585938 -16.460938 2.671875 -18.566406 0.671875 -20.359375 C -1.253906 -22.085938 -3.300781 -21.742188 -5.46875 -19.328125 L -8.640625 -15.796875 Z M -2.75 -10.515625 "/></g></g></g><g fill="#001d40" fill-opacity="1"><g transform="translate(81.864371, 131.801749)"><g><path d="M -16.9375 -29.078125 C -14.414062 -32.796875 -11.273438 -35.4375 -7.515625 -37 L -4.203125 -31.265625 C -5.847656 -30.484375 -7.414062 -29.507812 -8.90625 -28.34375 C -10.40625 -27.1875 -11.5 -26.097656 -12.1875 -25.078125 C -13.425781 -23.265625 -13.445312 -21.945312 -12.25 -21.125 C -11.457031 -20.59375 -10.519531 -20.613281 -9.4375 -21.1875 C -8.351562 -21.757812 -7.203125 -22.570312 -5.984375 -23.625 C -4.773438 -24.6875 -3.488281 -25.695312 -2.125 -26.65625 C -0.757812 -27.613281 0.769531 -28.171875 2.46875 -28.328125 C 4.164062 -28.492188 5.84375 -28.015625 7.5 -26.890625 C 9.882812 -25.265625 11.109375 -23.0625 11.171875 -20.28125 C 11.234375 -17.507812 10.285156 -14.6875 8.328125 -11.8125 C 6.929688 -9.75 5.195312 -7.953125 3.125 -6.421875 C 1.0625 -4.898438 -1.097656 -3.816406 -3.359375 -3.171875 L -6.546875 -8.90625 C -4.609375 -9.414062 -2.707031 -10.285156 -0.84375 -11.515625 C 1.007812 -12.753906 2.382812 -14.03125 3.28125 -15.34375 C 3.96875 -16.363281 4.316406 -17.28125 4.328125 -18.09375 C 4.347656 -18.914062 4.003906 -19.566406 3.296875 -20.046875 C 2.609375 -20.515625 1.8125 -20.578125 0.90625 -20.234375 C 0.0078125 -19.898438 -0.875 -19.320312 -1.75 -18.5 C -2.632812 -17.6875 -3.648438 -16.84375 -4.796875 -15.96875 C -5.953125 -15.09375 -7.082031 -14.320312 -8.1875 -13.65625 C -9.289062 -12.988281 -10.554688 -12.660156 -11.984375 -12.671875 C -13.410156 -12.691406 -14.804688 -13.171875 -16.171875 -14.109375 C -18.441406 -15.640625 -19.644531 -17.769531 -19.78125 -20.5 C -19.914062 -23.238281 -18.96875 -26.097656 -16.9375 -29.078125 Z M -16.9375 -29.078125 "/></g></g></g><g fill="#001d40" fill-opacity="1"><g transform="translate(98.560624, 107.02793)"><g><path d="M 23.546875 -19.703125 L 18.390625 -15.375 L -4.0625 -20.6875 L 7.796875 -6.515625 L 2.296875 -1.921875 L -16.953125 -24.953125 L -11.78125 -29.28125 L 10.734375 -23.9375 L -1.15625 -38.15625 L 4.296875 -42.734375 Z M 23.546875 -19.703125 "/></g></g></g><g fill="#001d40" fill-opacity="1"><g transform="translate(126.42369, 84.561723)"><g><path d="M 14.609375 -32.640625 L 0.078125 -26.265625 L 2.46875 -20.796875 L 15.578125 -26.5625 L 18 -21.078125 L 4.890625 -15.3125 L 7.3125 -9.78125 L 22.265625 -16.359375 L 24.6875 -10.859375 L 2.75 -1.203125 L -9.328125 -28.6875 L 12.1875 -38.140625 Z M 14.609375 -32.640625 "/></g></g></g><g fill="#001d40" fill-opacity="1"><g transform="translate(154.911392, 72.063894)"><g><path d="M 22 -8.5625 L 8.984375 -6.796875 L 7.5625 -1.015625 L -0.21875 0.03125 L 8.609375 -31.453125 L 16.375 -32.5 L 32.9375 -4.453125 L 24.859375 -3.359375 Z M 19 -13.984375 L 13.28125 -24.421875 L 10.421875 -12.8125 Z M 19 -13.984375 "/></g></g></g><g fill="#001d40" fill-opacity="1"><g transform="translate(189.660779, 67.733208)"><g><path d="M 22.265625 3.53125 L 16.28125 -9.375 L 11.671875 -5.625 L 10.515625 1.65625 L 2.96875 0.46875 L 7.65625 -29.171875 L 15.203125 -27.984375 L 13.171875 -15.15625 L 26.546875 -26.1875 L 35.265625 -24.796875 L 22.3125 -14.265625 L 31.296875 4.953125 Z M 22.265625 3.53125 "/></g></g></g><g fill="#001d40" fill-opacity="1"><g transform="translate(223.540546, 73.938905)"><g><path d="M 12.3125 -1.5625 L 23.953125 3.5625 L 21.375 9.40625 L 2.75 1.203125 L 14.84375 -26.265625 L 21.828125 -23.1875 Z M 12.3125 -1.5625 "/></g></g></g><g fill="#001d40" fill-opacity="1"><g transform="translate(247.908926, 84.380074)"><g><path d="M 21.359375 10.046875 L 11.125 1.828125 L 5.953125 4.765625 L -0.171875 -0.140625 L 28.71875 -15.4375 L 34.828125 -10.53125 L 25.921875 20.796875 L 19.5625 15.703125 Z M 23.21875 4.125 L 26.84375 -7.203125 L 16.46875 -1.28125 Z M 23.21875 4.125 "/></g></g></g><g fill="#001d40" fill-opacity="1"><g transform="translate(274.968556, 106.696825)"><g><path d="M 26.34375 -14.6875 L 34.453125 -3.046875 C 36.378906 -0.273438 37.351562 2.3125 37.375 4.71875 C 37.394531 7.125 36.472656 8.984375 34.609375 10.296875 C 33.316406 11.191406 31.921875 11.601562 30.421875 11.53125 C 28.921875 11.457031 27.519531 10.890625 26.21875 9.828125 C 27 11.597656 27.144531 13.328125 26.65625 15.015625 C 26.164062 16.710938 25.125 18.117188 23.53125 19.234375 C 21.4375 20.679688 19.179688 20.988281 16.765625 20.15625 C 14.359375 19.320312 12.140625 17.445312 10.109375 14.53125 L 1.71875 2.46875 Z M 25.890625 -5.140625 L 20.8125 -1.59375 L 24.34375 3.484375 C 24.976562 4.390625 25.710938 4.953125 26.546875 5.171875 C 27.378906 5.398438 28.195312 5.234375 29 4.671875 C 29.769531 4.128906 30.191406 3.429688 30.265625 2.578125 C 30.335938 1.722656 30.054688 0.84375 29.421875 -0.0625 Z M 16.3125 1.53125 L 10.875 5.328125 L 14.40625 10.40625 C 15.21875 11.570312 16.101562 12.316406 17.0625 12.640625 C 18.019531 12.972656 18.9375 12.835938 19.8125 12.234375 C 20.625 11.660156 21.035156 10.867188 21.046875 9.859375 C 21.054688 8.859375 20.65625 7.773438 19.84375 6.609375 Z M 16.3125 1.53125 "/></g></g></g><g clip-path="url(#a22ffc6019)"><path fill="#ffa500" d="M 227.9375 260.996094 C 228.109375 260.925781 228.171875 260.605469 228.28125 260.394531 C 227.960938 260.316406 227.636719 260.238281 227.3125 260.164062 C 227.277344 260.402344 227.246094 260.644531 227.210938 260.882812 C 227.457031 260.929688 227.742188 261.074219 227.9375 260.996094 Z M 258.214844 142.261719 C 258.21875 142.289062 258.53125 142.335938 258.570312 142.28125 C 258.699219 142.097656 258.769531 141.867188 258.863281 141.65625 C 258.632812 141.632812 258.40625 141.605469 258.179688 141.578125 C 258.183594 141.808594 258.175781 142.039062 258.214844 142.261719 Z M 86.785156 186.167969 C 86.796875 185.828125 86.863281 185.476562 86.785156 185.160156 C 86.761719 185.050781 86.371094 185.03125 86.144531 184.972656 C 86.097656 185.300781 86.046875 185.628906 86 185.941406 C 86.34375 186.039062 86.566406 186.105469 86.785156 186.167969 Z M 130.6875 118.6875 C 130.757812 118.675781 130.824219 118.078125 130.789062 118.066406 C 130.460938 117.957031 130.113281 117.921875 129.769531 117.863281 C 129.734375 118.089844 129.699219 118.316406 129.644531 118.675781 C 130.003906 118.691406 130.355469 118.746094 130.6875 118.6875 Z M 238.457031 217.757812 C 238.777344 217.785156 239.117188 217.886719 239.410156 217.8125 C 239.542969 217.777344 239.582031 217.386719 239.664062 217.160156 C 239.363281 217.082031 239.054688 217.003906 238.769531 216.929688 C 238.628906 217.300781 238.542969 217.527344 238.457031 217.757812 Z M 255.648438 184.203125 C 255.6875 184.191406 255.632812 183.585938 255.5625 183.574219 C 255.230469 183.511719 254.875 183.554688 254.527344 183.5625 C 254.554688 183.792969 254.582031 184.023438 254.628906 184.382812 C 254.972656 184.332031 255.324219 184.304688 255.648438 184.203125 Z M 252.539062 217.679688 C 252.339844 219.238281 252.339844 219.238281 254.078125 219.40625 C 253.613281 218.886719 253.152344 218.367188 252.539062 217.679688 Z M 251.21875 229.613281 C 251.28125 229.84375 251.339844 230.070312 251.402344 230.296875 C 252.257812 230.078125 253.113281 229.863281 253.96875 229.640625 C 253.910156 229.351562 253.847656 229.0625 253.789062 228.773438 C 252.933594 229.054688 252.078125 229.332031 251.21875 229.613281 Z M 222.425781 258.328125 C 220.96875 257.707031 220.96875 257.707031 220.570312 259.496094 C 221.160156 259.128906 221.75 258.757812 222.425781 258.328125 Z M 263.6875 183.207031 C 262.484375 182.109375 262.484375 182.109375 260.691406 182.96875 C 261.675781 184.109375 262.605469 184.101562 263.6875 183.207031 Z M 208.5625 262.148438 C 210.054688 262.257812 211.597656 262.597656 213.035156 260.65625 C 210.671875 259.960938 209.671875 261.171875 208.5625 262.148438 Z M 188.953125 255.914062 C 187.671875 255.894531 186.824219 255.875 185.980469 255.871094 C 183.417969 255.867188 181.097656 257.410156 178.453125 257.027344 C 178.109375 256.976562 177.664062 257.601562 177.160156 258 C 178.996094 261.496094 182.960938 258.785156 185.0625 261.527344 C 186.417969 259.574219 187.53125 257.964844 188.953125 255.914062 Z M 232.75 251.03125 C 232.203125 250.160156 231.695312 249.347656 231.175781 248.523438 C 233.214844 245.914062 236.394531 246.964844 238.8125 245.726562 C 239.492188 243.710938 239.886719 241.800781 238.390625 240.164062 C 239.636719 238.84375 240.882812 237.523438 242.34375 235.972656 C 243.804688 236.082031 245.757812 236.226562 247.980469 236.390625 C 247.964844 232.40625 244.394531 230.835938 243.664062 227.332031 C 240.953125 230.136719 240.765625 234.878906 235.78125 234.152344 C 235.445312 237.660156 233.269531 239.1875 230.503906 240.359375 C 228.558594 241.183594 226.804688 242.320312 225.183594 243.898438 C 223.515625 245.519531 220.960938 246.222656 218.804688 247.347656 C 215.136719 249.261719 211.320312 250 207.109375 249.902344 C 202.953125 249.808594 198.769531 250.628906 194.609375 251.144531 C 193.304688 251.308594 191.929688 251.617188 191.316406 253.726562 C 193.308594 254.257812 195.171875 255.121094 197.066406 255.1875 C 200.476562 255.300781 200.484375 255.097656 201.855469 258.621094 C 203.542969 258.828125 205.253906 259.148438 206.980469 259.210938 C 208.011719 259.25 209.140625 259.066406 210.085938 258.667969 C 212.695312 257.566406 215.125 256.109375 218.199219 256.554688 C 218.890625 256.65625 220.128906 255.574219 220.492188 254.757812 C 221.191406 253.203125 222.117188 252.570312 223.800781 252.277344 C 224.988281 252.074219 226.054688 251.011719 227.109375 250.246094 C 227.726562 249.796875 228.214844 249.171875 228.703125 248.6875 C 230.640625 249.238281 230.3125 251.992188 232.75 251.03125 Z M 231.746094 115.441406 C 230.949219 116.097656 230.148438 116.757812 229.257812 117.484375 C 230.796875 118.25 232.320312 118.621094 233.285156 119.566406 C 234.972656 121.21875 236.644531 121.753906 238.75 120.667969 C 240.1875 119.929688 241.308594 120.296875 242.363281 121.4375 C 243.039062 122.171875 243.882812 122.746094 244.742188 123.46875 C 241.132812 125.175781 240.914062 126.105469 242.828125 129.503906 C 245.074219 129.414062 247.175781 129.300781 249.273438 129.253906 C 251.921875 129.195312 251.753906 132.316406 253.78125 133.019531 C 253.09375 134.800781 252.46875 136.414062 252.007812 137.605469 C 253.734375 139.128906 254.730469 140.003906 255.707031 140.867188 C 259.746094 138.359375 260.394531 138.539062 262.476562 143.097656 C 261.210938 143.695312 259.957031 144.367188 258.644531 144.894531 C 256.523438 145.746094 254.847656 146.90625 254.816406 149.617188 C 257.125 149.027344 259.402344 148.441406 262.023438 147.769531 C 262.375 151.378906 259.71875 154.382812 262.210938 157.59375 C 260.421875 157.976562 259.1875 158.242188 258.070312 158.484375 C 257.417969 161.019531 259.949219 160.890625 260.460938 161.589844 C 260.09375 163.636719 259.820312 165.152344 259.515625 166.828125 C 261.300781 167.382812 262.6875 167.8125 263.9375 168.199219 C 264.917969 167.410156 265.707031 166.777344 267.046875 165.703125 C 267.550781 168.261719 267.949219 170.265625 268.394531 172.539062 C 264.378906 173.144531 260.382812 172.34375 257.367188 175.488281 C 258.765625 176.761719 260.03125 177.914062 261.351562 179.113281 C 263.007812 178.476562 264.554688 177.878906 266.46875 177.140625 C 266.355469 180.828125 266.257812 184.027344 266.15625 187.375 C 265.308594 187.515625 264.554688 187.640625 263.816406 187.765625 C 261.988281 192.363281 261.988281 192.363281 266.003906 195.191406 C 266.082031 197.046875 265.953125 198.847656 264.140625 199.976562 C 262.664062 199.601562 262.136719 197.257812 260.046875 198.582031 C 259.660156 202.957031 263.855469 203.421875 266.222656 205.40625 C 263.878906 207.851562 263.878906 207.851562 259.472656 205.628906 C 259.503906 207.082031 259.53125 208.351562 259.554688 209.375 C 260.140625 209.761719 260.351562 210.007812 260.59375 210.042969 C 263.238281 210.445312 263.570312 212.472656 263.753906 214.5625 C 263.90625 216.265625 262.71875 217.203125 261.269531 216.472656 C 260.253906 215.960938 259.367188 215.195312 258.425781 214.542969 C 258.949219 218.0625 259.570312 221.335938 262.097656 224.15625 C 260.847656 225.578125 259.734375 226.851562 258.46875 228.292969 C 258.730469 228.976562 258.996094 229.878906 259.40625 230.710938 C 261.113281 234.179688 260.851562 234.964844 257.25 236.320312 C 255.878906 236.839844 254.648438 237.453125 255.019531 239.167969 C 255.429688 241.0625 254.449219 242.179688 253.25 243.394531 C 250.96875 245.703125 248.617188 247.984375 246.660156 250.558594 C 242.800781 255.636719 237.464844 259.238281 233.441406 264.152344 C 232.382812 265.449219 230.570312 266.15625 229.066406 267.0625 C 227.339844 268.101562 225.585938 269.109375 223.800781 270.050781 C 221.171875 271.441406 218.574219 272.925781 215.839844 274.078125 C 211.179688 276.039062 206.234375 276.871094 201.195312 276.664062 C 196.621094 276.480469 192.0625 275.953125 187.496094 275.652344 C 186.902344 275.609375 186.277344 276 185.589844 276.214844 C 186.078125 276.875 186.417969 277.335938 187.160156 278.339844 C 177.667969 279.019531 169.242188 276.6875 160.8125 274.875 C 160.097656 271.335938 160.113281 268.0625 162.15625 264.683594 C 160.429688 264.070312 159.101562 263.339844 157.699219 263.15625 C 154.910156 262.789062 151.996094 262.285156 150.289062 265.609375 C 149.710938 266.742188 148.300781 266.734375 147.40625 266.066406 C 144.980469 264.257812 141.457031 264.371094 139.671875 261.332031 C 139.066406 260.300781 137.527344 259.699219 136.292969 259.179688 C 133.804688 258.125 131.261719 257.171875 128.683594 256.34375 C 125.460938 255.304688 123.964844 256.121094 122.738281 259.351562 C 122.382812 260.292969 122.078125 261.253906 121.832031 261.96875 C 119.152344 260.914062 116.902344 259.613281 114.5 259.203125 C 112.238281 258.816406 110.679688 257.96875 109.707031 256.011719 C 108.871094 254.324219 107.8125 252.644531 107.460938 250.839844 C 106.546875 246.15625 103.480469 242.625 101.222656 238.707031 C 98.464844 233.910156 95.0625 229.488281 91.996094 224.867188 C 90.058594 221.941406 90.011719 218.09375 87.492188 215.433594 C 88.429688 211.632812 85.226562 208.976562 84.757812 205.621094 C 84.238281 201.910156 82.964844 198.324219 83.414062 194.40625 C 83.746094 191.507812 83.359375 188.453125 82.839844 185.550781 C 82.441406 183.332031 82.476562 181.269531 83.019531 179.140625 C 83.59375 176.902344 84.0625 174.65625 83.203125 172.359375 C 83.082031 172.03125 83.285156 171.578125 83.320312 171.304688 C 84.367188 170.644531 85.261719 170.082031 86.511719 169.296875 C 86.019531 166.625 85.523438 163.902344 85.019531 161.175781 C 87.421875 160.210938 89.390625 158.757812 90.082031 156.011719 C 90.210938 155.507812 90.46875 154.9375 90.847656 154.617188 C 93.394531 152.460938 93.855469 149.652344 93.40625 146.644531 C 93.773438 146.234375 93.996094 145.875 94.316406 145.644531 C 97.234375 143.507812 99.089844 140.945312 100.105469 137.222656 C 100.839844 134.535156 103.660156 132.414062 105.574219 130.058594 C 105.722656 129.878906 106.0625 129.828125 106.324219 129.777344 C 110.074219 129.027344 112.320312 126.207031 113.246094 123.058594 C 114.242188 119.675781 116.148438 118.152344 119.179688 117.207031 C 121.375 116.523438 123.613281 115.726562 124.921875 113.628906 C 126.765625 110.683594 129.675781 110.871094 132.859375 110.460938 C 131.984375 111.863281 131.378906 112.828125 130.277344 114.589844 C 132.988281 113.882812 134.84375 113.398438 136.734375 112.898438 C 136.386719 111.46875 136.101562 110.289062 135.726562 108.746094 C 140.574219 109.359375 143.859375 107.839844 145.816406 103.75 C 146.308594 102.71875 146.957031 101.5625 149.515625 101.761719 C 148.929688 102.839844 148.441406 103.734375 147.984375 104.574219 C 149.070312 105.597656 150.03125 106.511719 150.988281 107.417969 C 153.105469 107.5 154.78125 106.996094 155.566406 104.816406 C 155.660156 104.554688 156.167969 104.441406 156.523438 104.242188 C 156.941406 105.0625 157.296875 105.757812 157.59375 106.339844 C 161.1875 106.761719 164.273438 105.558594 167.335938 103.882812 C 167.464844 107.546875 167.914062 107.921875 170.757812 106.691406 C 172.695312 105.851562 174.523438 104.757812 176.320312 103.820312 C 176.714844 104.152344 176.9375 104.304688 177.121094 104.496094 C 179.558594 107.050781 179.664062 107.046875 182.105469 104.378906 C 182.363281 104.097656 182.699219 103.824219 183.050781 103.710938 C 184.5625 103.21875 186.074219 102.71875 187.617188 102.371094 C 188.359375 102.199219 189.421875 102.027344 189.917969 102.402344 C 193.347656 105.011719 197.417969 103.320312 201.085938 104.191406 C 201.164062 104.207031 201.351562 103.777344 201.535156 103.472656 C 201.421875 103.160156 201.375 102.722656 201.144531 102.433594 C 199.164062 99.941406 196.53125 99.324219 193.503906 99.789062 C 192.300781 99.976562 190.960938 100.851562 189.824219 99.421875 C 194.101562 96.421875 194.101562 96.421875 194.34375 92.847656 C 196.273438 93.394531 198.121094 93.917969 200.101562 94.476562 C 199.574219 95.351562 199.191406 95.992188 198.804688 96.636719 C 201.386719 98.796875 203.199219 96.515625 205.109375 95.75 C 206.546875 96.632812 205.613281 98.816406 207.621094 99.289062 C 209.699219 99.777344 208.199219 102.289062 209.53125 103.410156 C 210.347656 104.097656 210.828125 105.191406 211.664062 105.839844 C 212.367188 106.386719 213.386719 106.839844 214.230469 106.785156 C 214.859375 106.746094 215.433594 105.828125 216.25 105.109375 C 216.640625 109.34375 220.078125 110.460938 222.660156 112.636719 C 221.945312 110.148438 221.074219 107.777344 224.390625 106.539062 C 225.175781 107.433594 225.941406 108.308594 226.730469 109.214844 C 225.925781 109.660156 225.25 110.03125 224.449219 110.472656 C 225 112.300781 223.753906 114.265625 225.058594 115.757812 C 227.464844 115.648438 229.605469 115.550781 231.742188 115.457031 L 231.746094 115.441406 " fill-opacity="1" fill-rule="evenodd"/></g><g clip-path="url(#a3c0502f10)"><path fill="#ffa500" d="M 268.785156 243.046875 C 268.035156 243.984375 267.28125 244.921875 266.621094 245.742188 C 265.140625 245.273438 263.699219 244.554688 262.210938 244.433594 C 261.023438 244.335938 259.886719 245.097656 259.578125 246.789062 C 259.980469 247.140625 260.445312 247.585938 260.953125 247.972656 C 263.210938 249.710938 263.316406 250.34375 261.351562 252.386719 C 260.523438 253.246094 259.496094 253.925781 258.507812 254.609375 C 257.84375 255.066406 256.851562 255.207031 256.417969 255.796875 C 255.074219 257.632812 253.207031 258.433594 250.53125 258.742188 C 251.582031 260.011719 252.28125 260.855469 253.167969 261.925781 C 250.851562 263.386719 248.722656 264.726562 246.410156 266.179688 C 246.414062 267.269531 246.414062 268.433594 246.417969 269.835938 C 244.289062 270.195312 243.28125 271.574219 242.621094 273.503906 C 241.953125 275.457031 240.457031 276.757812 238.640625 277.894531 C 235.5 279.855469 232.59375 282.191406 228.824219 284.925781 C 230.546875 285.132812 231.324219 285.445312 231.96875 285.265625 C 238.332031 283.515625 244.234375 281.039062 247.984375 275.101562 C 249.351562 272.933594 251 270.945312 252.515625 268.875 C 252.675781 268.65625 252.753906 268.308594 252.960938 268.207031 C 256.441406 266.527344 257.207031 262.804688 259.183594 259.996094 C 260.113281 258.679688 261.117188 257.414062 262.074219 256.113281 C 262.871094 255.035156 263.664062 253.949219 264.4375 252.855469 C 265.367188 251.546875 266.152344 250.117188 267.222656 248.945312 C 268.816406 247.199219 269.585938 245.359375 268.765625 243.042969 L 268.785156 243.046875 " fill-opacity="1" fill-rule="evenodd"/></g><path fill="#ffa500" d="M 279.078125 196.308594 C 279.210938 196.132812 279.277344 195.820312 279.210938 195.609375 C 279.164062 195.449219 278.875 195.363281 278.691406 195.246094 C 278.574219 195.566406 278.453125 195.886719 278.324219 196.238281 C 278.667969 196.277344 279.011719 196.398438 279.078125 196.308594 Z M 282.105469 198.011719 C 282.359375 198.363281 282.136719 199.421875 281.769531 199.765625 C 281.386719 200.125 280.390625 200.316406 279.964844 200.066406 C 278.039062 198.941406 276.222656 197.636719 273.464844 195.789062 C 277.113281 194.671875 277.453125 191.121094 280.902344 189.609375 C 280.917969 192.90625 280.371094 195.632812 282.105469 198.011719 " fill-opacity="1" fill-rule="evenodd"/><path fill="#ffa500" d="M 271.910156 173.457031 C 271.902344 175.074219 271.894531 176.484375 271.882812 177.769531 C 273.796875 178.21875 275.539062 178.628906 277.484375 179.085938 C 277.484375 179.085938 277.753906 179.003906 277.953125 178.839844 C 278.96875 178.003906 280.363281 177.277344 279.882812 175.660156 C 279.316406 173.742188 277.683594 174.230469 276.210938 174.207031 C 274.917969 174.183594 273.628906 173.773438 271.910156 173.457031 " fill-opacity="1" fill-rule="evenodd"/><path fill="#ffa500" d="M 272.710938 212.550781 C 273.238281 212.480469 273.878906 212.578125 274.273438 212.3125 C 275.828125 211.257812 277.382812 211.089844 279.246094 211.472656 C 281.453125 211.925781 281.730469 211.4375 281.753906 207.976562 C 280.410156 208.371094 279.191406 208.730469 277.78125 209.144531 C 277.234375 208.613281 276.585938 207.976562 275.917969 207.328125 C 272.828125 207.59375 273.964844 210.867188 272.710938 212.550781 " fill-opacity="1" fill-rule="evenodd"/><path fill="#ffa500" d="M 274.472656 219.753906 C 275.125 221.351562 275.503906 222.652344 276.171875 223.789062 C 276.824219 224.902344 278.933594 224.777344 279.082031 223.59375 C 279.355469 221.414062 279.746094 219.089844 278.582031 216.519531 C 277.757812 217.320312 277.265625 217.890625 276.683594 218.34375 C 276.0625 218.824219 275.359375 219.195312 274.472656 219.753906 " fill-opacity="1" fill-rule="evenodd"/><path fill="#ffa500" d="M 268.765625 243.042969 C 269.265625 242.417969 269.84375 241.84375 270.246094 241.164062 C 270.808594 240.210938 271.136719 239.164062 270.203125 238.21875 C 269.269531 237.273438 268.136719 236.929688 266.921875 237.558594 C 266.132812 237.96875 265.445312 238.574219 264.683594 239.113281 C 266.171875 240.539062 267.480469 241.792969 268.785156 243.046875 L 268.765625 243.042969 " fill-opacity="1" fill-rule="evenodd"/><path fill="#ffa500" d="M 129.636719 98.234375 C 131.714844 95.03125 134.011719 91.953125 134.460938 88.039062 C 131.542969 90.8125 130.605469 94.554688 129.636719 98.234375 " fill-opacity="1" fill-rule="evenodd"/><path fill="#ffa500" d="M 275.078125 233.449219 C 275.832031 231.507812 276.324219 230.25 276.890625 228.789062 C 274.71875 228.144531 273.414062 228.796875 271.675781 229.890625 C 272.78125 231.046875 273.632812 231.933594 275.078125 233.449219 " fill-opacity="1" fill-rule="evenodd"/><path fill="#ffa500" d="M 273.648438 185.636719 C 275.550781 186.011719 277.035156 186.308594 278.527344 186.605469 C 278.628906 186.351562 278.734375 186.097656 278.835938 185.847656 C 277.179688 184.863281 276.546875 182.535156 273.746094 182.523438 C 273.71875 183.507812 273.691406 184.355469 273.648438 185.636719 " fill-opacity="1" fill-rule="evenodd"/><path fill="#ffa500" d="M 272.574219 215.648438 C 269.289062 216.832031 269.289062 216.832031 269.75 220.257812 C 272.878906 220.019531 271.984375 217.351562 272.574219 215.648438 " fill-opacity="1" fill-rule="evenodd"/><path fill="#ffa500" d="M 187.734375 90.683594 C 185.351562 88.207031 184.988281 88.144531 182.222656 89.511719 C 184.796875 90.832031 184.796875 90.832031 187.734375 90.683594 " fill-opacity="1" fill-rule="evenodd"/><path fill="#ffa500" d="M 270.375 228.15625 C 272.472656 228.683594 273.449219 227.90625 273.609375 226.164062 C 273.636719 225.847656 273.042969 225.246094 272.652344 225.160156 C 271.472656 224.902344 270.917969 225.660156 270.375 228.15625 " fill-opacity="1" fill-rule="evenodd"/><path fill="#ffa500" d="M 269.46875 164.0625 C 268.667969 163.148438 267.867188 162.234375 266.933594 161.164062 C 265.703125 163.988281 265.738281 164.042969 269.46875 164.0625 " fill-opacity="1" fill-rule="evenodd"/><path fill="#ffa500" d="M 270.839844 161.902344 C 271.71875 161.921875 272.257812 162.089844 272.640625 161.914062 C 273.617188 161.472656 273.929688 159.957031 273.167969 159.296875 C 272.890625 159.050781 271.945312 159.042969 271.835938 159.230469 C 271.421875 159.945312 271.226562 160.785156 270.839844 161.902344 " fill-opacity="1" fill-rule="evenodd"/><path fill="#ffa500" d="M 263.035156 231.222656 C 263.332031 230.429688 263.664062 229.765625 263.78125 229.0625 C 263.800781 228.925781 262.976562 228.652344 262.542969 228.441406 C 262.285156 229.222656 262.015625 229.996094 261.8125 230.792969 C 261.804688 230.820312 262.453125 231.019531 263.035156 231.222656 " fill-opacity="1" fill-rule="evenodd"/><path fill="#ffa500" d="M 216.613281 277.339844 C 217.410156 276.898438 218.203125 276.457031 219.507812 275.734375 C 217.566406 274.902344 216.894531 275.679688 216.613281 277.339844 " fill-opacity="1" fill-rule="evenodd"/><path fill="#ffa500" d="M 231.378906 270.828125 C 229.816406 269.433594 229.039062 270.070312 228.175781 271.90625 C 229.5625 271.4375 230.472656 271.136719 231.378906 270.828125 " fill-opacity="1" fill-rule="evenodd"/><path fill="#ffa500" d="M 262.425781 153.492188 C 263.347656 154.820312 264.363281 154.441406 265.535156 153.941406 C 264.191406 152.8125 264.191406 152.8125 262.425781 153.492188 " fill-opacity="1" fill-rule="evenodd"/><path fill="#ffa500" d="M 189.632812 92.203125 C 190.394531 92.40625 190.96875 92.664062 191.53125 92.644531 C 191.707031 92.636719 191.855469 91.875 192.019531 91.460938 C 191.441406 91.316406 190.871094 91.101562 190.292969 91.078125 C 190.132812 91.074219 189.953125 91.640625 189.632812 92.203125 " fill-opacity="1" fill-rule="evenodd"/><path fill="#ffa500" d="M 268.113281 153.929688 C 268.148438 154.757812 268 155.425781 268.222656 155.589844 C 268.523438 155.808594 269.152344 155.753906 269.546875 155.59375 C 269.734375 155.519531 269.882812 154.726562 269.734375 154.589844 C 269.429688 154.300781 268.917969 154.230469 268.113281 153.929688 " fill-opacity="1" fill-rule="evenodd"/><path fill="#ffa500" d="M 159.5 88.359375 C 158.839844 88.175781 158.179688 87.980469 157.511719 87.84375 C 157.472656 87.832031 157.242188 88.46875 157.261719 88.476562 C 157.882812 88.789062 158.523438 89.0625 159.164062 89.339844 C 159.277344 89.011719 159.390625 88.683594 159.5 88.359375 " fill-opacity="1" fill-rule="evenodd"/><path fill="#ffa500" d="M 275.210938 165.480469 C 275.511719 166.8125 275.492188 167.339844 275.679688 167.425781 C 275.953125 167.550781 276.386719 167.402344 276.710938 167.265625 C 276.789062 167.230469 276.789062 166.710938 276.660156 166.558594 C 276.414062 166.269531 276.046875 166.085938 275.210938 165.480469 " fill-opacity="1" fill-rule="evenodd"/><path fill="#ffa500" d="M 271.496094 238.476562 C 272.453125 238.269531 272.863281 238.28125 273.144531 238.09375 C 273.410156 237.914062 273.535156 237.53125 273.726562 237.234375 C 273.414062 237.113281 273.054688 236.835938 272.804688 236.914062 C 272.527344 237 272.355469 237.410156 271.496094 238.476562 " fill-opacity="1" fill-rule="evenodd"/><path fill="#ffa500" d="M 238.328125 263.921875 C 238.960938 263.980469 239.3125 264.089844 239.625 264.015625 C 239.808594 263.96875 239.929688 263.636719 240.078125 263.429688 C 239.804688 263.25 239.476562 262.875 239.28125 262.933594 C 238.984375 263.027344 238.78125 263.421875 238.328125 263.921875 " fill-opacity="1" fill-rule="evenodd"/><path fill="#ffa500" d="M 169.304688 86.765625 C 170.03125 86.847656 170.753906 86.929688 171.480469 87.011719 C 171.507812 86.796875 171.535156 86.578125 171.558594 86.363281 C 170.835938 86.273438 170.109375 86.179688 169.382812 86.089844 C 169.355469 86.3125 169.328125 86.539062 169.304688 86.765625 " fill-opacity="1" fill-rule="evenodd"/><path fill="#ffa500" d="M 92.484375 134.566406 C 92.890625 134.878906 93.085938 135.023438 93.277344 135.171875 C 93.515625 134.777344 93.777344 134.390625 93.960938 133.96875 C 93.988281 133.917969 93.5 133.546875 93.464844 133.574219 C 93.117188 133.867188 92.816406 134.214844 92.484375 134.566406 " fill-opacity="1" fill-rule="evenodd"/><path fill="#ffa500" d="M 231.746094 115.441406 C 232.214844 116.023438 232.683594 116.601562 233.21875 117.265625 C 233.875 115.671875 233.875 115.671875 231.742188 115.457031 L 231.746094 115.441406 " fill-opacity="1" fill-rule="evenodd"/><path fill="#ffa500" d="M 84.320312 146.136719 C 84.648438 146.3125 84.851562 146.417969 85.054688 146.527344 C 85.210938 146.230469 85.382812 145.941406 85.488281 145.625 C 85.5 145.589844 84.992188 145.285156 84.925781 145.339844 C 84.679688 145.546875 84.523438 145.851562 84.320312 146.136719 " fill-opacity="1" fill-rule="evenodd"/><path fill="#ffa500" d="M 176.074219 98.039062 C 176.03125 98.246094 175.988281 98.457031 175.945312 98.664062 C 176.152344 98.703125 176.425781 98.84375 176.550781 98.757812 C 176.679688 98.675781 176.664062 98.375 176.714844 98.167969 C 176.507812 98.125 176.300781 98.085938 176.074219 98.039062 " fill-opacity="1" fill-rule="evenodd"/><path fill="#ffa500" d="M 270.875 194.714844 C 271.1875 194.941406 271.378906 195.082031 271.574219 195.222656 C 271.746094 194.929688 271.964844 194.652344 272.058594 194.335938 C 272.082031 194.261719 271.578125 193.910156 271.535156 193.949219 C 271.28125 194.15625 271.09375 194.445312 270.875 194.714844 " fill-opacity="1" fill-rule="evenodd"/><path fill="#ffa500" d="M 203.101562 254.761719 C 202.960938 255.097656 202.867188 255.320312 202.777344 255.539062 C 203.132812 255.609375 203.488281 255.730469 203.839844 255.714844 C 203.941406 255.707031 204.023438 255.308594 204.117188 255.085938 C 203.773438 254.976562 203.433594 254.867188 203.101562 254.761719 " fill-opacity="1" fill-rule="evenodd"/><g clip-path="url(#c94c5e2207)"><path fill="#001d40" d="M 153.3125 159.039062 C 153.3125 159.039062 133.929688 151.558594 133.792969 140.371094 C 133.65625 129.1875 137.820312 130.167969 146.539062 135.046875 C 155.253906 139.925781 194.867188 157.039062 213.8125 159.226562 C 240.144531 162.269531 246.675781 152.675781 262.414062 151.738281 C 268.867188 151.351562 277.457031 156.800781 282.0625 162.40625 C 286.667969 168.015625 294.707031 178.914062 291.410156 184.808594 C 283.375 199.167969 262.144531 217.25 215.289062 224.867188 C 178.140625 230.90625 140.488281 241.820312 123.355469 248.664062 C 112.296875 253.082031 104.972656 254.699219 101.648438 252.839844 C 91.273438 247.03125 86.5 206.832031 87.375 182.40625 C 88.25 157.980469 76.101562 156.230469 86.496094 153.296875 C 96.894531 150.359375 115.988281 145.152344 130.453125 149.949219 C 144.921875 154.75 153.3125 159.039062 153.3125 159.039062 " fill-opacity="1" fill-rule="nonzero"/></g><path fill="#5dcad1" d="M 159.640625 161.570312 C 159.640625 161.570312 141.128906 149.527344 143.832031 142.285156 C 146.539062 135.046875 160.8125 151.539062 186.535156 157.429688 C 248.160156 171.550781 247.269531 150.171875 264.253906 155.148438 C 280.726562 159.976562 276.125 172.34375 261.570312 181.578125 C 235.203125 198.304688 209.484375 201.25 186.773438 200.320312 C 164.058594 199.394531 126.699219 220.757812 116.460938 225.785156 C 106.226562 230.8125 99.550781 231.640625 99.550781 231.640625 C 99.550781 231.640625 112.703125 233.109375 146.308594 217.574219 C 175.222656 204.210938 180.285156 205.640625 208.566406 204.871094 C 236.84375 204.101562 276.554688 180.371094 278.40625 171.640625 C 280.261719 162.917969 291.792969 176.515625 287.308594 182.515625 C 279.941406 192.363281 257.160156 209.089844 232.640625 215.21875 C 206.023438 221.871094 158.121094 228.054688 142.289062 234.683594 C 126.460938 241.3125 106.25 251.851562 99.171875 236.980469 C 92.089844 222.117188 93.820312 202.171875 95.136719 182.371094 C 96.242188 165.804688 88.355469 161.40625 93.554688 159.9375 C 98.75 158.46875 114.664062 148.6875 140.59375 160.253906 C 156.550781 167.371094 159.640625 161.570312 159.640625 161.570312 " fill-opacity="1" fill-rule="nonzero"/><path fill="#001d40" d="M 276.066406 174.0625 C 281.03125 176.933594 283.488281 182.175781 285.660156 187.238281 C 286 188.03125 287.152344 187.34375 286.816406 186.558594 C 284.550781 181.269531 281.917969 175.898438 276.746094 172.90625 C 275.996094 172.472656 275.320312 173.628906 276.066406 174.0625 " fill-opacity="1" fill-rule="nonzero"/><path fill="#001d40" d="M 267.03125 182.949219 C 271.292969 186.292969 273.867188 191.546875 275.144531 196.71875 C 275.351562 197.558594 276.644531 197.203125 276.4375 196.363281 C 275.113281 190.992188 272.402344 185.472656 267.976562 182 C 267.304688 181.472656 266.347656 182.414062 267.03125 182.949219 " fill-opacity="1" fill-rule="nonzero"/><path fill="#001d40" d="M 256.632812 189.171875 C 259.542969 194.039062 263.097656 199.160156 263.679688 204.953125 C 263.765625 205.804688 265.109375 205.8125 265.023438 204.953125 C 264.410156 198.886719 260.839844 193.597656 257.789062 188.496094 C 257.34375 187.753906 256.183594 188.429688 256.632812 189.171875 " fill-opacity="1" fill-rule="nonzero"/><path fill="#001d40" d="M 244.8125 195.570312 C 246.933594 200.730469 249.765625 205.617188 251.328125 211 C 251.570312 211.828125 252.867188 211.472656 252.621094 210.640625 C 251.058594 205.257812 248.230469 200.375 246.109375 195.210938 C 245.78125 194.421875 244.484375 194.769531 244.8125 195.570312 " fill-opacity="1" fill-rule="nonzero"/><path fill="#001d40" d="M 109.824219 230.992188 C 110.480469 233.226562 117.113281 249.167969 120.101562 246.511719 C 120.75 245.933594 119.796875 244.988281 119.152344 245.5625 C 119.269531 245.460938 119.378906 245.578125 119.203125 245.492188 C 119.027344 245.402344 118.882812 245.261719 118.742188 245.128906 C 118.285156 244.695312 117.917969 244.171875 117.558594 243.65625 C 116.566406 242.226562 115.730469 240.683594 114.921875 239.144531 C 113.503906 236.441406 111.980469 233.578125 111.121094 230.632812 C 110.875 229.804688 109.582031 230.160156 109.824219 230.992188 " fill-opacity="1" fill-rule="nonzero"/><path fill="#001d40" d="M 123.035156 225.597656 C 126.523438 231.722656 129.660156 239.703125 136.492188 242.832031 C 137.273438 243.1875 137.957031 242.03125 137.167969 241.671875 C 130.566406 238.652344 127.566406 230.84375 124.191406 224.921875 C 123.765625 224.171875 122.605469 224.84375 123.035156 225.597656 " fill-opacity="1" fill-rule="nonzero"/><path fill="#001d40" d="M 142.3125 218.171875 C 142.316406 224.367188 145.269531 231.417969 150.472656 235 C 151.1875 235.488281 151.855469 234.328125 151.148438 233.839844 C 146.347656 230.535156 143.660156 223.867188 143.65625 218.171875 C 143.652344 217.304688 142.3125 217.304688 142.3125 218.171875 " fill-opacity="1" fill-rule="nonzero"/><path fill="#001d40" d="M 159.546875 210.390625 C 159.804688 214.261719 161.234375 218.046875 162.890625 221.519531 C 164.644531 225.191406 167.035156 228.984375 170.472656 231.292969 C 171.195312 231.777344 171.863281 230.613281 171.152344 230.136719 C 167.992188 228.015625 165.886719 224.511719 164.214844 221.179688 C 162.5625 217.875 161.136719 214.113281 160.886719 210.390625 C 160.832031 209.53125 159.488281 209.527344 159.546875 210.390625 " fill-opacity="1" fill-rule="nonzero"/><path fill="#001d40" d="M 179.601562 203.433594 C 179.683594 205.265625 180.308594 207.113281 180.84375 208.847656 C 181.703125 211.632812 182.726562 214.371094 183.859375 217.058594 C 184.851562 219.417969 185.921875 221.796875 187.347656 223.933594 C 187.988281 224.890625 189.175781 226.613281 190.570312 226.15625 C 191.386719 225.886719 191.035156 224.59375 190.210938 224.863281 C 189.4375 225.117188 188.167969 222.746094 187.839844 222.191406 C 186.601562 220.113281 185.621094 217.867188 184.707031 215.632812 C 183.75 213.289062 182.894531 210.90625 182.136719 208.492188 C 181.636719 206.882812 181.019531 205.136719 180.941406 203.433594 C 180.902344 202.574219 179.5625 202.570312 179.601562 203.433594 " fill-opacity="1" fill-rule="nonzero"/><path fill="#001d40" d="M 199.933594 203.199219 C 200.300781 207.078125 201.234375 210.957031 202.601562 214.601562 C 203.828125 217.863281 205.660156 221.714844 209.097656 223.089844 C 209.902344 223.414062 210.246094 222.117188 209.457031 221.796875 C 206.230469 220.507812 204.617188 216.308594 203.554688 213.304688 C 202.40625 210.070312 201.597656 206.621094 201.273438 203.199219 C 201.195312 202.34375 199.851562 202.335938 199.933594 203.199219 " fill-opacity="1" fill-rule="nonzero"/><path fill="#001d40" d="M 217.828125 202.355469 C 218.132812 205.75 219.394531 209.078125 220.898438 212.113281 C 222.207031 214.753906 224.109375 217.949219 227.046875 218.996094 C 227.863281 219.285156 228.210938 217.988281 227.40625 217.703125 C 224.730469 216.75 223.070312 213.484375 221.898438 211.117188 C 220.566406 208.425781 219.4375 205.367188 219.171875 202.355469 C 219.09375 201.5 217.753906 201.492188 217.828125 202.355469 " fill-opacity="1" fill-rule="nonzero"/><path fill="#001d40" d="M 229.972656 200.730469 C 231.523438 206.195312 233.535156 212.40625 238.582031 215.625 C 239.316406 216.09375 239.988281 214.929688 239.261719 214.464844 C 234.539062 211.453125 232.714844 205.472656 231.265625 200.375 C 231.03125 199.542969 229.738281 199.894531 229.972656 200.730469 " fill-opacity="1" fill-rule="nonzero"/><path fill="#001d40" d="M 99.695312 190.550781 C 99.382812 197.351562 98.449219 215.21875 103.941406 220.082031 C 111.105469 226.421875 122.644531 218.808594 129.179688 215.378906 C 136.660156 211.449219 146.730469 204.734375 157.929688 201.574219 C 152.113281 199.710938 143.101562 201.097656 138.046875 202.523438 C 132.699219 204.035156 123.570312 209.269531 118.1875 207.148438 C 109.257812 203.636719 112.933594 159.425781 98.132812 165.449219 C 98.132812 165.449219 100.464844 173.710938 99.695312 190.550781 " fill-opacity="1" fill-rule="nonzero"/><path fill="#001d40" d="M 197.625 187.542969 C 205.046875 187.109375 212.078125 186.664062 219.460938 186.464844 C 230.179688 186.175781 245.503906 183.179688 253.71875 179.261719 C 249.160156 184.648438 239.527344 188.625 234.820312 190.480469 C 227.089844 193.523438 217.789062 194.632812 209.527344 195.742188 C 202.621094 196.675781 196.144531 194.941406 189.191406 194.363281 C 186.070312 194.101562 174.097656 193.007812 171.410156 194.082031 C 171.410156 194.082031 185.097656 188.273438 197.625 187.542969 " fill-opacity="1" fill-rule="nonzero"/><path fill="#001d40" d="M 189.421875 135.972656 C 199.183594 135.980469 209.144531 121.78125 211.394531 113.253906 C 213.273438 106.136719 211.507812 83.835938 223.878906 98.074219 C 230.605469 105.8125 227.550781 119.480469 220.71875 126.425781 C 207.792969 139.570312 189.421875 135.972656 189.421875 135.972656 " fill-opacity="1" fill-rule="nonzero"/><path fill="#001d40" d="M 212.054688 143.894531 C 229.300781 146.042969 272.65625 122.464844 259.355469 101.550781 C 249.683594 86.347656 237.796875 133.054688 212.054688 143.894531 " fill-opacity="1" fill-rule="nonzero"/><path fill="#001d40" d="M 245.882812 142.585938 C 255.992188 127.917969 281.273438 122.179688 281.238281 137.007812 C 281.210938 148.9375 261.480469 138.183594 245.882812 142.585938 " fill-opacity="1" fill-rule="nonzero"/><path fill="#001d40" d="M 167.878906 159.164062 C 163.5 159.550781 164.148438 166.25 168.183594 166.980469 C 172.777344 167.8125 174.78125 161.324219 171.296875 160.175781 C 172.074219 162.027344 170.621094 164.179688 168.65625 163.511719 C 166.753906 162.863281 167.878906 159.164062 167.878906 159.164062 " fill-opacity="1" fill-rule="nonzero"/><path fill="#001d40" d="M 181.828125 162.855469 C 177.449219 163.242188 178.097656 169.941406 182.132812 170.671875 C 186.730469 171.503906 188.734375 165.015625 185.246094 163.867188 C 186.027344 165.71875 184.574219 167.871094 182.609375 167.203125 C 180.703125 166.558594 181.828125 162.855469 181.828125 162.855469 " fill-opacity="1" fill-rule="nonzero"/><path fill="#001d40" d="M 195.78125 166.546875 C 191.402344 166.933594 192.050781 173.632812 196.085938 174.363281 C 200.679688 175.195312 202.683594 168.707031 199.199219 167.558594 C 199.976562 169.414062 198.523438 171.136719 196.558594 170.46875 C 194.65625 169.820312 195.78125 166.546875 195.78125 166.546875 " fill-opacity="1" fill-rule="nonzero"/><path fill="#001d40" d="M 211.632812 169.703125 C 207.253906 170.089844 207.902344 176.789062 211.9375 177.519531 C 216.53125 178.351562 218.535156 171.863281 215.046875 170.714844 C 215.828125 172.566406 214.375 174.71875 212.410156 174.050781 C 210.503906 173.402344 211.632812 169.703125 211.632812 169.703125 " fill-opacity="1" fill-rule="nonzero"/><path fill="#001d40" d="M 127.773438 191.582031 C 137.339844 177.222656 157.40625 171.773438 173.558594 174.136719 C 191.957031 176.828125 210.261719 181.457031 228.691406 183.179688 C 230.863281 183.382812 233.257812 184.066406 235.410156 183.292969 C 214.992188 190.632812 191.054688 179.921875 170.453125 179.210938 C 155.757812 178.707031 136.421875 180.582031 127.449219 193.28125 " fill-opacity="1" fill-rule="nonzero"/><path fill="#001d40" d="M 243.019531 158.304688 C 233.839844 164.613281 245.800781 175.472656 250.210938 179.722656 C 244.324219 179.199219 237.976562 175.914062 234.671875 170.894531 C 232.945312 168.277344 231.464844 156.550781 237.28125 159.324219 " fill-opacity="1" fill-rule="nonzero"/><path fill="#ffffff" d="M 242.179688 161.289062 C 248.546875 161.804688 254.691406 156.652344 261.296875 157.800781 C 268.265625 159.015625 268.890625 168.105469 262.109375 170.46875 C 261.355469 166.136719 256.777344 163.050781 252.695312 162.644531 C 250.140625 162.386719 243.203125 164.359375 242.550781 161.1875 L 242.179688 161.289062 " fill-opacity="1" fill-rule="evenodd"/><path fill="#ffffff" d="M 161.730469 153.324219 C 166.664062 155.613281 171.667969 156.191406 176.863281 157.632812 C 180.386719 158.605469 183.449219 159.609375 187.15625 160 C 189.636719 160.261719 192.503906 160.519531 194.667969 161.007812 C 190.773438 160.507812 186.667969 159.386719 182.882812 158.152344 C 178.0625 156.582031 172.925781 155.367188 168.371094 153.191406 C 163.078125 150.660156 156.769531 144.71875 150.699219 144.679688 C 150.328125 148.8125 158.816406 151.972656 161.730469 153.324219 " fill-opacity="1" fill-rule="evenodd"/><path fill="#ffffff" d="M 96.578125 162.21875 C 99.078125 159.601562 105.273438 158.21875 108.746094 157.828125 C 113.855469 157.257812 119.398438 156.714844 124.253906 158.472656 C 128.867188 160.144531 133.71875 160.921875 138.480469 162.039062 C 141.507812 162.753906 144.8125 164.355469 147.824219 164.636719 C 136.449219 164.785156 125.15625 161.339844 113.789062 161.121094 C 110.492188 161.058594 107.398438 161.691406 104.175781 162.082031 C 102.203125 162.320312 98.449219 162.175781 96.894531 163.335938 L 96.578125 162.21875 " fill-opacity="1" fill-rule="evenodd"/><path fill="#ffffff" d="M 219.722656 118.546875 C 218.578125 115.46875 220.171875 111.304688 219.367188 107.855469 C 218.972656 106.160156 216.953125 101.03125 219.398438 100.210938 C 222.121094 99.292969 223.195312 103.667969 223.617188 105.402344 C 224.242188 107.96875 224.527344 111.019531 223.808594 113.597656 C 223.683594 114.03125 220.21875 119.871094 219.722656 118.546875 " fill-opacity="1" fill-rule="evenodd"/><path fill="#ffffff" d="M 246 125.976562 C 250.789062 122.734375 251.03125 118.058594 251.398438 112.859375 C 251.558594 110.628906 251.464844 101.941406 255.511719 102.25 C 258.417969 102.46875 258.277344 108.789062 258.128906 110.882812 C 257.570312 118.738281 251.878906 121.996094 246 125.976562 " fill-opacity="1" fill-rule="evenodd"/><path fill="#ffffff" d="M 265.960938 131.671875 C 269.242188 130.359375 281.160156 131.683594 276.730469 137.390625 C 275.214844 139.34375 270.875 139.554688 269.265625 138.058594 C 267.777344 136.675781 268.058594 132.082031 265.800781 132.519531 L 265.960938 131.671875 " fill-opacity="1" fill-rule="evenodd"/></svg>